<mxfile host="app.diagrams.net" modified="2022-01-15T11:30:51.009Z" agent="5.0 (Macintosh; Intel Mac OS X 10_15_7) AppleWebKit/537.36 (KHTML, like Gecko) Chrome/97.0.4692.71 Safari/537.36" etag="rnvAcNgaah1SY8jCKRXv" version="16.2.4" type="github">
  <diagram id="TzsW7ChBCb9alEpfELTt" name="Page-1">
    <mxGraphModel dx="1998" dy="2120" grid="1" gridSize="10" guides="1" tooltips="1" connect="1" arrows="1" fold="1" page="1" pageScale="1" pageWidth="827" pageHeight="1169" math="0" shadow="0">
      <root>
        <mxCell id="0" />
        <mxCell id="1" parent="0" />
        <mxCell id="W6AQGnCxnCeebsLuxKbL-37" value="" style="rounded=1;whiteSpace=wrap;html=1;shadow=0;glass=0;sketch=1;fontFamily=Helvetica;fontSize=12;strokeColor=#B266FF;fillColor=none;" parent="1" vertex="1">
          <mxGeometry y="-421.87" width="350" height="413.75" as="geometry" />
        </mxCell>
        <mxCell id="W6AQGnCxnCeebsLuxKbL-25" value="" style="rounded=1;whiteSpace=wrap;html=1;shadow=0;glass=0;sketch=1;fontFamily=Helvetica;fontSize=12;fillColor=#f5f5f5;strokeColor=#67AB9F;fontColor=#333333;" parent="1" vertex="1">
          <mxGeometry x="10" y="485" width="370" height="445" as="geometry" />
        </mxCell>
        <mxCell id="W6AQGnCxnCeebsLuxKbL-16" value="" style="rounded=1;whiteSpace=wrap;html=1;shadow=0;glass=0;sketch=1;fontFamily=Helvetica;fontSize=12;strokeColor=#d79b00;fillColor=none;" parent="1" vertex="1">
          <mxGeometry x="414" y="41.75" width="350" height="413.75" as="geometry" />
        </mxCell>
        <mxCell id="W6AQGnCxnCeebsLuxKbL-1" value="后藤慎司&lt;br&gt;刑警" style="rounded=1;whiteSpace=wrap;html=1;fillColor=#dae8fc;strokeColor=#6c8ebf;shadow=0;sketch=1;glass=0;" parent="1" vertex="1">
          <mxGeometry x="220" y="310" width="110" height="50" as="geometry" />
        </mxCell>
        <mxCell id="W6AQGnCxnCeebsLuxKbL-3" value="竹野理绘&lt;br&gt;精神科医生" style="rounded=1;whiteSpace=wrap;html=1;fillColor=#dae8fc;strokeColor=#6c8ebf;shadow=0;sketch=1;glass=0;" parent="1" vertex="1">
          <mxGeometry x="220" y="200" width="110" height="50" as="geometry" />
        </mxCell>
        <mxCell id="W6AQGnCxnCeebsLuxKbL-4" value="奈良井明世&lt;br&gt;翻译家" style="rounded=1;whiteSpace=wrap;html=1;fillColor=#dae8fc;strokeColor=#6c8ebf;shadow=0;sketch=1;glass=0;" parent="1" vertex="1">
          <mxGeometry x="60" y="200" width="110" height="50" as="geometry" />
        </mxCell>
        <mxCell id="W6AQGnCxnCeebsLuxKbL-5" value="峰原卓&lt;br&gt;AHM房主" style="rounded=1;whiteSpace=wrap;html=1;fillColor=#dae8fc;strokeColor=#6c8ebf;shadow=0;sketch=1;glass=0;" parent="1" vertex="1">
          <mxGeometry x="60" y="310" width="110" height="50" as="geometry" />
        </mxCell>
        <mxCell id="W6AQGnCxnCeebsLuxKbL-7" value="富&lt;span style=&quot;color: rgb(51 , 51 , 51) ; font-family: &amp;#34;pingfang sc&amp;#34; , &amp;#34;lantinghei sc&amp;#34; , &amp;#34;microsoft yahei&amp;#34; , &amp;#34;arial&amp;#34; , , sans-serif , &amp;#34;tahoma&amp;#34; ; background-color: rgb(255 , 255 , 255)&quot;&gt;&lt;font style=&quot;font-size: 12px&quot;&gt;樫加寿子&lt;br&gt;保姆&lt;br&gt;&lt;/font&gt;&lt;/span&gt;" style="rounded=1;whiteSpace=wrap;html=1;fillColor=#fff2cc;strokeColor=#d6b656;shadow=0;sketch=1;glass=0;" parent="1" vertex="1">
          <mxGeometry x="604" y="75.5" width="110" height="50" as="geometry" />
        </mxCell>
        <mxCell id="W6AQGnCxnCeebsLuxKbL-8" value="西川珠美&lt;br&gt;被毒妄想症" style="rounded=1;whiteSpace=wrap;html=1;fillColor=#fff2cc;strokeColor=#d6b656;shadow=0;sketch=1;glass=0;" parent="1" vertex="1">
          <mxGeometry x="424" y="195.5" width="110" height="50" as="geometry" />
        </mxCell>
        <mxCell id="W6AQGnCxnCeebsLuxKbL-9" value="古泽清吾&lt;br&gt;律师" style="rounded=1;whiteSpace=wrap;html=1;fillColor=#fff2cc;strokeColor=#d6b656;shadow=0;sketch=1;glass=0;" parent="1" vertex="1">
          <mxGeometry x="604" y="315.5" width="110" height="50" as="geometry" />
        </mxCell>
        <mxCell id="W6AQGnCxnCeebsLuxKbL-10" value="福岛芳子&lt;br&gt;外甥女" style="rounded=1;whiteSpace=wrap;html=1;fillColor=#fff2cc;strokeColor=#d6b656;shadow=0;sketch=1;glass=0;" parent="1" vertex="1">
          <mxGeometry x="604" y="155.5" width="110" height="50" as="geometry" />
        </mxCell>
        <mxCell id="W6AQGnCxnCeebsLuxKbL-11" value="西川真一&lt;br&gt;侄子" style="rounded=1;whiteSpace=wrap;html=1;fillColor=#fff2cc;strokeColor=#d6b656;shadow=0;sketch=1;glass=0;" parent="1" vertex="1">
          <mxGeometry x="604" y="235.5" width="110" height="50" as="geometry" />
        </mxCell>
        <mxCell id="W6AQGnCxnCeebsLuxKbL-12" value="" style="endArrow=classic;html=1;rounded=0;fontFamily=Helvetica;fontSize=12;fontColor=default;exitX=1;exitY=0.25;exitDx=0;exitDy=0;entryX=0;entryY=0.5;entryDx=0;entryDy=0;" parent="1" source="W6AQGnCxnCeebsLuxKbL-8" target="W6AQGnCxnCeebsLuxKbL-7" edge="1">
          <mxGeometry width="50" height="50" relative="1" as="geometry">
            <mxPoint x="324" y="345.5" as="sourcePoint" />
            <mxPoint x="374" y="295.5" as="targetPoint" />
          </mxGeometry>
        </mxCell>
        <mxCell id="W6AQGnCxnCeebsLuxKbL-13" value="" style="endArrow=classic;html=1;rounded=0;fontFamily=Helvetica;fontSize=12;fontColor=default;exitX=1;exitY=0.5;exitDx=0;exitDy=0;entryX=0;entryY=0.5;entryDx=0;entryDy=0;" parent="1" source="W6AQGnCxnCeebsLuxKbL-8" target="W6AQGnCxnCeebsLuxKbL-10" edge="1">
          <mxGeometry width="50" height="50" relative="1" as="geometry">
            <mxPoint x="544" y="218" as="sourcePoint" />
            <mxPoint x="614" y="110.5" as="targetPoint" />
          </mxGeometry>
        </mxCell>
        <mxCell id="W6AQGnCxnCeebsLuxKbL-14" value="" style="endArrow=classic;html=1;rounded=0;fontFamily=Helvetica;fontSize=12;fontColor=default;exitX=1;exitY=0.5;exitDx=0;exitDy=0;entryX=0;entryY=0.5;entryDx=0;entryDy=0;" parent="1" source="W6AQGnCxnCeebsLuxKbL-8" target="W6AQGnCxnCeebsLuxKbL-11" edge="1">
          <mxGeometry width="50" height="50" relative="1" as="geometry">
            <mxPoint x="544" y="230.5" as="sourcePoint" />
            <mxPoint x="614" y="190.5" as="targetPoint" />
          </mxGeometry>
        </mxCell>
        <mxCell id="W6AQGnCxnCeebsLuxKbL-15" value="" style="endArrow=classic;html=1;rounded=0;fontFamily=Helvetica;fontSize=12;fontColor=default;exitX=1;exitY=0.75;exitDx=0;exitDy=0;entryX=0;entryY=0.5;entryDx=0;entryDy=0;" parent="1" source="W6AQGnCxnCeebsLuxKbL-8" target="W6AQGnCxnCeebsLuxKbL-9" edge="1">
          <mxGeometry width="50" height="50" relative="1" as="geometry">
            <mxPoint x="554" y="240.5" as="sourcePoint" />
            <mxPoint x="624" y="200.5" as="targetPoint" />
          </mxGeometry>
        </mxCell>
        <mxCell id="W6AQGnCxnCeebsLuxKbL-17" value="P的妄想" style="text;html=1;align=center;verticalAlign=middle;whiteSpace=wrap;rounded=0;shadow=0;glass=0;sketch=1;fontFamily=Helvetica;fontSize=15;fillColor=default;fontColor=#C98F58;" parent="1" vertex="1">
          <mxGeometry x="549" y="25.5" width="80" height="30" as="geometry" />
        </mxCell>
        <mxCell id="W6AQGnCxnCeebsLuxKbL-18" value="&lt;font color=&quot;#5c5c5c&quot; style=&quot;font-size: 12px&quot;&gt;&amp;nbsp; &amp;nbsp; &amp;nbsp; &amp;nbsp; 怀疑保姆要毒害她而只喝罐装茶，在家中举办茶话会时被发现因中毒而死在卧室。&lt;/font&gt;" style="text;html=1;strokeColor=none;fillColor=none;align=left;verticalAlign=top;whiteSpace=wrap;rounded=0;shadow=0;glass=0;sketch=1;fontFamily=Helvetica;fontSize=15;fontColor=#C98F58;" parent="1" vertex="1">
          <mxGeometry x="434" y="385.5" width="310" height="60" as="geometry" />
        </mxCell>
        <mxCell id="W6AQGnCxnCeebsLuxKbL-19" value="仲代哲志&lt;br&gt;美术馆馆长" style="rounded=1;whiteSpace=wrap;html=1;fillColor=#d5e8d4;strokeColor=#82b366;shadow=0;sketch=1;glass=0;" parent="1" vertex="1">
          <mxGeometry x="210" y="530" width="110" height="50" as="geometry" />
        </mxCell>
        <mxCell id="W6AQGnCxnCeebsLuxKbL-20" value="松尾大辅&lt;br&gt;研究员" style="rounded=1;whiteSpace=wrap;html=1;fillColor=#d5e8d4;strokeColor=#82b366;shadow=0;sketch=1;glass=0;" parent="1" vertex="1">
          <mxGeometry x="50" y="530" width="110" height="50" as="geometry" />
        </mxCell>
        <mxCell id="W6AQGnCxnCeebsLuxKbL-21" value="神谷信吾&lt;br&gt;研究员" style="rounded=1;whiteSpace=wrap;html=1;fillColor=#d5e8d4;strokeColor=#82b366;shadow=0;sketch=1;glass=0;" parent="1" vertex="1">
          <mxGeometry x="210" y="730" width="110" height="50" as="geometry" />
        </mxCell>
        <mxCell id="W6AQGnCxnCeebsLuxKbL-22" value="室崎纯平&lt;br&gt;被杀者" style="rounded=1;whiteSpace=wrap;html=1;fillColor=#d5e8d4;strokeColor=#82b366;shadow=0;sketch=1;glass=0;" parent="1" vertex="1">
          <mxGeometry x="50" y="670" width="110" height="50" as="geometry" />
        </mxCell>
        <mxCell id="W6AQGnCxnCeebsLuxKbL-23" value="香川伸子&lt;br&gt;馆长秘书" style="rounded=1;whiteSpace=wrap;html=1;fillColor=#d5e8d4;strokeColor=#82b366;shadow=0;sketch=1;glass=0;" parent="1" vertex="1">
          <mxGeometry x="210" y="635" width="110" height="50" as="geometry" />
        </mxCell>
        <mxCell id="W6AQGnCxnCeebsLuxKbL-24" value="&lt;font color=&quot;#5c5c5c&quot; style=&quot;font-size: 12px&quot;&gt;&amp;nbsp; &amp;nbsp; &amp;nbsp; &amp;nbsp; 警方在0点整接到一通电话----一个名叫室崎纯平的研究员在美术馆特殊藏品室遇害了。&lt;br&gt;&amp;nbsp; &amp;nbsp; &amp;nbsp; &amp;nbsp; 特殊藏品室装有指纹识别系统，推测的死亡时间前后只有3人有出入记录，但3人都有充分的理由证明自己不是犯人。&lt;br&gt;&lt;/font&gt;" style="text;html=1;strokeColor=none;fillColor=none;align=left;verticalAlign=top;whiteSpace=wrap;rounded=0;shadow=0;glass=0;sketch=1;fontFamily=Helvetica;fontSize=15;fontColor=#C98F58;" parent="1" vertex="1">
          <mxGeometry x="30" y="810" width="330" height="95" as="geometry" />
        </mxCell>
        <mxCell id="W6AQGnCxnCeebsLuxKbL-26" value="F的告发" style="text;html=1;align=center;verticalAlign=middle;whiteSpace=wrap;rounded=0;shadow=0;glass=0;sketch=1;fontFamily=Helvetica;fontSize=15;fillColor=default;fontColor=#67AB9F;" parent="1" vertex="1">
          <mxGeometry x="150" y="470" width="80" height="30" as="geometry" />
        </mxCell>
        <mxCell id="W6AQGnCxnCeebsLuxKbL-27" value="" style="endArrow=classic;html=1;rounded=0;fontFamily=Helvetica;fontSize=12;fontColor=#67AB9F;exitX=1;exitY=0.5;exitDx=0;exitDy=0;entryX=0;entryY=0.5;entryDx=0;entryDy=0;startArrow=classic;startFill=1;" parent="1" source="W6AQGnCxnCeebsLuxKbL-20" target="W6AQGnCxnCeebsLuxKbL-19" edge="1">
          <mxGeometry width="50" height="50" relative="1" as="geometry">
            <mxPoint x="260" y="730" as="sourcePoint" />
            <mxPoint x="310" y="680" as="targetPoint" />
          </mxGeometry>
        </mxCell>
        <mxCell id="W6AQGnCxnCeebsLuxKbL-28" value="" style="endArrow=classic;html=1;rounded=0;fontFamily=Helvetica;fontSize=12;fontColor=#67AB9F;exitX=0.5;exitY=1;exitDx=0;exitDy=0;" parent="1" source="W6AQGnCxnCeebsLuxKbL-19" target="W6AQGnCxnCeebsLuxKbL-23" edge="1">
          <mxGeometry width="50" height="50" relative="1" as="geometry">
            <mxPoint x="260" y="730" as="sourcePoint" />
            <mxPoint x="310" y="680" as="targetPoint" />
          </mxGeometry>
        </mxCell>
        <mxCell id="W6AQGnCxnCeebsLuxKbL-29" value="千岁百合子&lt;br&gt;千岁美妆社长" style="rounded=1;whiteSpace=wrap;html=1;shadow=0;glass=0;sketch=1;fontFamily=Helvetica;fontSize=12;strokeColor=#9673a6;fillColor=#e1d5e7;" parent="1" vertex="1">
          <mxGeometry x="30" y="-280" width="105" height="50" as="geometry" />
        </mxCell>
        <mxCell id="W6AQGnCxnCeebsLuxKbL-30" value="奥村智头雄" style="rounded=1;whiteSpace=wrap;html=1;shadow=0;glass=0;sketch=1;fontFamily=Helvetica;fontSize=12;strokeColor=#9673a6;fillColor=#e1d5e7;" parent="1" vertex="1">
          <mxGeometry x="185" y="-170" width="105" height="50" as="geometry" />
        </mxCell>
        <mxCell id="W6AQGnCxnCeebsLuxKbL-31" value="茶山诗织" style="rounded=1;whiteSpace=wrap;html=1;shadow=0;glass=0;sketch=1;fontFamily=Helvetica;fontSize=12;strokeColor=#9673a6;fillColor=#e1d5e7;" parent="1" vertex="1">
          <mxGeometry x="185" y="-310" width="105" height="50" as="geometry" />
        </mxCell>
        <mxCell id="W6AQGnCxnCeebsLuxKbL-32" value="千里·奎恩特" style="rounded=1;whiteSpace=wrap;html=1;shadow=0;glass=0;sketch=1;fontFamily=Helvetica;fontSize=12;strokeColor=#9673a6;fillColor=#e1d5e7;" parent="1" vertex="1">
          <mxGeometry x="185" y="-240" width="105" height="50" as="geometry" />
        </mxCell>
        <mxCell id="W6AQGnCxnCeebsLuxKbL-33" value="千曲悟郎" style="rounded=1;whiteSpace=wrap;html=1;shadow=0;glass=0;sketch=1;fontFamily=Helvetica;fontSize=12;strokeColor=#9673a6;fillColor=#e1d5e7;" parent="1" vertex="1">
          <mxGeometry x="185" y="-380" width="105" height="50" as="geometry" />
        </mxCell>
        <mxCell id="W6AQGnCxnCeebsLuxKbL-35" style="edgeStyle=orthogonalEdgeStyle;rounded=0;orthogonalLoop=1;jettySize=auto;html=1;entryX=0.5;entryY=1;entryDx=0;entryDy=0;fontFamily=Helvetica;fontSize=12;fontColor=#67AB9F;startArrow=none;startFill=0;" parent="1" source="W6AQGnCxnCeebsLuxKbL-34" target="W6AQGnCxnCeebsLuxKbL-29" edge="1">
          <mxGeometry relative="1" as="geometry" />
        </mxCell>
        <mxCell id="W6AQGnCxnCeebsLuxKbL-36" value="&lt;font color=&quot;#474747&quot;&gt;发现遗体&lt;/font&gt;" style="edgeLabel;html=1;align=center;verticalAlign=middle;resizable=0;points=[];fontSize=12;fontFamily=Helvetica;fontColor=#67AB9F;" parent="W6AQGnCxnCeebsLuxKbL-35" vertex="1" connectable="0">
          <mxGeometry y="-1" relative="1" as="geometry">
            <mxPoint x="1" as="offset" />
          </mxGeometry>
        </mxCell>
        <mxCell id="W6AQGnCxnCeebsLuxKbL-34" value="友永里美&lt;br&gt;服务员" style="rounded=1;whiteSpace=wrap;html=1;shadow=0;glass=0;sketch=1;fontFamily=Helvetica;fontSize=12;strokeColor=#9673a6;fillColor=#e1d5e7;" parent="1" vertex="1">
          <mxGeometry x="30" y="-170" width="105" height="50" as="geometry" />
        </mxCell>
        <mxCell id="W6AQGnCxnCeebsLuxKbL-38" value="&lt;font color=&quot;#5c5c5c&quot; style=&quot;font-size: 12px&quot;&gt;&amp;nbsp; &amp;nbsp; &amp;nbsp; &amp;nbsp; 在拉维妮娅号邮轮上，千岁社长因发现其中某一高官吸食毒品而被害死在皇家套房的阳光房里。&lt;br&gt;&amp;nbsp; &amp;nbsp; &amp;nbsp; &amp;nbsp; 服务员和吸毒者通过暗号交易，碰巧被千岁社长说对暗号而把毒品交到了千岁手上。&lt;br&gt;&lt;/font&gt;" style="text;html=1;strokeColor=none;fillColor=none;align=left;verticalAlign=top;whiteSpace=wrap;rounded=0;shadow=0;glass=0;sketch=1;fontFamily=Helvetica;fontSize=15;fontColor=#C98F58;" parent="1" vertex="1">
          <mxGeometry x="20" y="-110" width="310" height="80" as="geometry" />
        </mxCell>
        <mxCell id="W6AQGnCxnCeebsLuxKbL-39" value="C的遗言" style="text;html=1;align=center;verticalAlign=middle;whiteSpace=wrap;rounded=0;shadow=0;glass=0;sketch=1;fontFamily=Helvetica;fontSize=15;fillColor=default;fontColor=#B266FF;" parent="1" vertex="1">
          <mxGeometry x="130" y="-440" width="80" height="30" as="geometry" />
        </mxCell>
        <mxCell id="KL27z55c9yI2TD4WN1av-1" value="" style="rounded=1;whiteSpace=wrap;html=1;fillColor=none;strokeColor=#FF4A86;" vertex="1" parent="1">
          <mxGeometry x="-450" y="-4.5" width="370" height="600" as="geometry" />
        </mxCell>
        <mxCell id="KL27z55c9yI2TD4WN1av-2" value="Y的绑架" style="text;html=1;align=center;verticalAlign=middle;whiteSpace=wrap;rounded=0;shadow=0;glass=0;sketch=1;fontFamily=Helvetica;fontSize=15;fillColor=default;fontColor=#FF4A86;" vertex="1" parent="1">
          <mxGeometry x="-305" y="-25.5" width="80" height="30" as="geometry" />
        </mxCell>
        <mxCell id="KL27z55c9yI2TD4WN1av-6" style="edgeStyle=orthogonalEdgeStyle;rounded=0;orthogonalLoop=1;jettySize=auto;html=1;entryX=0.5;entryY=0;entryDx=0;entryDy=0;fontColor=#FF4A86;" edge="1" parent="1" source="KL27z55c9yI2TD4WN1av-3" target="KL27z55c9yI2TD4WN1av-4">
          <mxGeometry relative="1" as="geometry" />
        </mxCell>
        <mxCell id="KL27z55c9yI2TD4WN1av-7" value="妻子" style="edgeLabel;html=1;align=center;verticalAlign=middle;resizable=0;points=[];fontColor=#FF4A86;" vertex="1" connectable="0" parent="KL27z55c9yI2TD4WN1av-6">
          <mxGeometry x="-0.0778" y="3" relative="1" as="geometry">
            <mxPoint as="offset" />
          </mxGeometry>
        </mxCell>
        <mxCell id="KL27z55c9yI2TD4WN1av-8" style="edgeStyle=orthogonalEdgeStyle;rounded=0;orthogonalLoop=1;jettySize=auto;html=1;fontColor=#FF4A86;" edge="1" parent="1" source="KL27z55c9yI2TD4WN1av-3" target="KL27z55c9yI2TD4WN1av-5">
          <mxGeometry relative="1" as="geometry" />
        </mxCell>
        <mxCell id="KL27z55c9yI2TD4WN1av-9" value="儿子" style="edgeLabel;html=1;align=center;verticalAlign=middle;resizable=0;points=[];fontColor=#FF4A86;" vertex="1" connectable="0" parent="KL27z55c9yI2TD4WN1av-8">
          <mxGeometry x="-0.0063" y="-5" relative="1" as="geometry">
            <mxPoint y="-5" as="offset" />
          </mxGeometry>
        </mxCell>
        <mxCell id="KL27z55c9yI2TD4WN1av-3" value="成濑正雄" style="rounded=1;whiteSpace=wrap;html=1;strokeColor=#b85450;fillColor=#f8cecc;sketch=1;" vertex="1" parent="1">
          <mxGeometry x="-400" y="25.5" width="80" height="50" as="geometry" />
        </mxCell>
        <mxCell id="KL27z55c9yI2TD4WN1av-12" value="妹妹" style="edgeStyle=orthogonalEdgeStyle;rounded=0;orthogonalLoop=1;jettySize=auto;html=1;entryX=0;entryY=0.5;entryDx=0;entryDy=0;fontColor=#FF4A86;" edge="1" parent="1" source="KL27z55c9yI2TD4WN1av-4" target="KL27z55c9yI2TD4WN1av-11">
          <mxGeometry relative="1" as="geometry" />
        </mxCell>
        <mxCell id="KL27z55c9yI2TD4WN1av-4" value="早纪子" style="rounded=1;whiteSpace=wrap;html=1;strokeColor=#b85450;fillColor=#f8cecc;sketch=1;" vertex="1" parent="1">
          <mxGeometry x="-400" y="135.5" width="80" height="50" as="geometry" />
        </mxCell>
        <mxCell id="KL27z55c9yI2TD4WN1av-5" value="悦夫&lt;br&gt;被绑架" style="rounded=1;whiteSpace=wrap;html=1;strokeColor=#b85450;fillColor=#f8cecc;sketch=1;" vertex="1" parent="1">
          <mxGeometry x="-250" y="25.5" width="80" height="50" as="geometry" />
        </mxCell>
        <mxCell id="KL27z55c9yI2TD4WN1av-10" value="岩崎&lt;br&gt;警官" style="rounded=1;whiteSpace=wrap;html=1;strokeColor=#b85450;fillColor=#f8cecc;sketch=1;" vertex="1" parent="1">
          <mxGeometry x="-400" y="295.5" width="80" height="50" as="geometry" />
        </mxCell>
        <mxCell id="KL27z55c9yI2TD4WN1av-14" value="" style="edgeStyle=orthogonalEdgeStyle;rounded=0;orthogonalLoop=1;jettySize=auto;html=1;fontColor=#FF4A86;" edge="1" parent="1" source="KL27z55c9yI2TD4WN1av-11" target="KL27z55c9yI2TD4WN1av-13">
          <mxGeometry relative="1" as="geometry" />
        </mxCell>
        <mxCell id="KL27z55c9yI2TD4WN1av-15" value="丈夫" style="edgeLabel;html=1;align=center;verticalAlign=middle;resizable=0;points=[];fontColor=#FF4A86;" vertex="1" connectable="0" parent="KL27z55c9yI2TD4WN1av-14">
          <mxGeometry x="-0.1722" y="-2" relative="1" as="geometry">
            <mxPoint as="offset" />
          </mxGeometry>
        </mxCell>
        <mxCell id="KL27z55c9yI2TD4WN1av-11" value="香苗" style="rounded=1;whiteSpace=wrap;html=1;strokeColor=#b85450;fillColor=#f8cecc;sketch=1;" vertex="1" parent="1">
          <mxGeometry x="-250" y="135.5" width="80" height="50" as="geometry" />
        </mxCell>
        <mxCell id="KL27z55c9yI2TD4WN1av-13" value="柏木武史" style="rounded=1;whiteSpace=wrap;html=1;strokeColor=#b85450;fillColor=#f8cecc;sketch=1;" vertex="1" parent="1">
          <mxGeometry x="-250" y="225.5" width="80" height="50" as="geometry" />
        </mxCell>
        <mxCell id="KL27z55c9yI2TD4WN1av-16" value="柳泽幸一&lt;br&gt;绑匪之一(被灭口)" style="rounded=1;whiteSpace=wrap;html=1;strokeColor=#b85450;fillColor=#f8cecc;sketch=1;" vertex="1" parent="1">
          <mxGeometry x="-260" y="315.5" width="100" height="50" as="geometry" />
        </mxCell>
        <mxCell id="KL27z55c9yI2TD4WN1av-18" value="&lt;font style=&quot;font-size: 12px&quot;&gt;&amp;nbsp; &amp;nbsp; &amp;nbsp; &amp;nbsp; 悦夫在上学路上被绑架，绑匪要求带一亿赎金去指定地点交易。&lt;br&gt;&amp;nbsp; &amp;nbsp; &amp;nbsp; &amp;nbsp; 现金放到绑匪要求的地点后定时炸弹依旧爆炸，原因是绑匪看到有警察监视而未去解除定时炸弹。悦夫因炸弹身亡，现金也被全部烧掉。&lt;br&gt;&amp;nbsp; &amp;nbsp; &amp;nbsp; &amp;nbsp; 警方发现的绑匪之一柳泽幸一被灭口，多年调查后依旧没有任何线索。&lt;br&gt;&amp;nbsp; &amp;nbsp; &amp;nbsp; &amp;nbsp; 12年后成濑因被查出癌症去世，期间早纪子也因车祸去世。成濑把整个事件写成手记发布到网上。被明世看到，一起决定重新调查此案。&lt;br&gt;&lt;/font&gt;" style="text;html=1;strokeColor=none;fillColor=none;align=left;verticalAlign=top;whiteSpace=wrap;rounded=0;shadow=0;glass=0;sketch=1;fontFamily=Helvetica;fontSize=15;fontColor=#FF4A86;" vertex="1" parent="1">
          <mxGeometry x="-430" y="390.5" width="330" height="155" as="geometry" />
        </mxCell>
      </root>
    </mxGraphModel>
  </diagram>
</mxfile>
